# xmcd
#
# Track frame offsets:
#	150
#	20876
#	42596
#	77616
#	95517
#	122504
#	143370
#	162484
#	177274
#	207672
#	223624
#	240485
#	255210
#
# Disc length: 3732 seconds
# Revision: 0
# Processed by: cddbd v1.5.2PL0 Copyright (c) Steve Scherf et al.
# Submitted via: dBpowerAMP V12.0
#
DISCID=af0e920d
DTITLE=Karen Lovely - Live! in Los Angeles
DYEAR=2012
DGENRE=Rock
TTITLE0=Ocean of Tears
TTITLE1=Sunny Weather
TTITLE2=Knock Knock
TTITLE3=Cold Man Cold
TTITLE4=Still The Rain
TTITLE5=Older Fool
TTITLE6=Too Little Too Late
TTITLE7=Ask Your Heart
TTITLE8=Never Felt No Blues
TTITLE9=Other Plans
TTITLE10=You Dont Move Me
TTITLE11=Blues Ain't Far Behind
TTITLE12=I've Had Enough
EXTD=
EXTT0=
EXTT1=
EXTT2=
EXTT3=
EXTT4=
EXTT5=
EXTT6=
EXTT7=
EXTT8=
EXTT9=
EXTT10=
EXTT11=
EXTT12=
PLAYORDER=
